<svg width="283" height="269" viewBox="0 0 283 269" fill="none" xmlns="http://www.w3.org/2000/svg">
<rect x="15.8094" y="152.773" width="246.424" height="64.6128" rx="32.3064" transform="rotate(-22.8417 15.8094 152.773)" fill="url(#paint0_linear_9_462)"/>
<path d="M80.535 152.146C79.7853 152.682 78.8846 153.183 77.833 153.649L78.2285 154.323C79.1766 155.912 80.0504 157.433 80.85 158.886C81.6649 160.332 82.3694 161.753 82.9634 163.148C83.6684 164.805 83.8501 166.104 83.5086 167.046C83.1736 168.004 82.3083 168.78 80.9128 169.374C80.0234 169.753 78.9078 169.983 77.5661 170.065C76.2244 170.147 75.0012 170.061 73.8967 169.806C72.8075 169.545 72.1519 169.154 71.93 168.633C71.8321 168.403 71.8524 168.132 71.9911 167.819C72.1297 167.506 72.3121 167.211 72.5382 166.934C72.7643 166.657 72.9386 166.492 73.0613 166.44C73.2607 166.355 73.4139 166.353 73.5209 166.434C73.6498 166.524 73.7273 166.6 73.7534 166.661C73.7861 166.738 73.7618 166.83 73.6805 166.937C73.4874 167.164 73.3611 167.335 73.3018 167.451C73.2424 167.567 73.2453 167.702 73.3106 167.855C73.4673 168.223 73.9502 168.507 74.7595 168.706C75.584 168.898 76.5205 168.97 77.5689 168.923C78.6107 168.859 79.5227 168.661 80.3048 168.329C80.9796 168.041 81.4913 167.733 81.8401 167.403C82.1889 167.074 82.3738 166.615 82.395 166.026C82.4096 165.422 82.2048 164.622 81.7805 163.625C81.069 161.953 79.6431 159.327 77.5028 155.746C77.3067 155.413 77.1269 155.118 76.9634 154.861C76.8087 154.583 76.6812 154.347 76.581 154.155C75.5382 154.599 74.6992 154.947 74.0639 155.199C72.8854 155.664 71.8746 156.013 71.0315 156.245C70.7884 156.312 70.5608 156.31 70.3487 156.237C70.1454 156.142 69.998 155.988 69.9067 155.773C69.8675 155.681 69.8743 155.569 69.9272 155.438C69.98 155.307 70.0678 155.215 70.1905 155.163C70.4972 155.033 70.8597 154.905 71.278 154.782C72.4278 154.419 73.6468 153.964 74.9349 153.415L75.8551 153.024C75.624 152.651 75.4802 152.377 75.4238 152.202C75.3804 152.057 75.4092 151.891 75.5103 151.703C75.6268 151.509 75.7694 151.376 75.9381 151.304C76.1221 151.225 76.3265 151.301 76.5514 151.532C76.6496 151.635 76.8699 151.94 77.2122 152.446C77.933 152.139 78.4906 151.875 78.8851 151.652C79.2883 151.408 79.5174 151.265 79.5722 151.224C79.9755 150.98 80.2461 150.828 80.3841 150.77C80.5375 150.704 80.6699 150.675 80.7815 150.682C80.9085 150.682 80.9915 150.729 81.0307 150.821C81.1221 151.035 81.1149 151.274 81.0092 151.536C80.9035 151.798 80.7455 152.002 80.535 152.146ZM90.4145 163.672C89.387 164.109 88.5072 164.149 87.7749 163.79C87.0427 163.432 86.497 162.831 86.138 161.987C85.8247 161.251 85.5667 160.283 85.3639 159.084C85.1765 157.877 85.1453 156.74 85.2705 155.673C85.2751 155.598 85.3031 155.324 85.3546 154.849C85.4149 154.352 85.5407 153.946 85.7318 153.629C85.9165 153.296 86.1622 153.065 86.4689 152.935C86.6069 152.876 86.7459 152.862 86.8859 152.893C87.0347 152.902 87.1319 152.96 87.1776 153.068C87.1907 153.098 87.1773 153.195 87.1375 153.356C87.1065 153.496 87.0811 153.607 87.0612 153.688C86.8074 154.538 86.6501 155.339 86.5891 156.089C86.4927 157.054 86.4849 157.972 86.5659 158.844C86.6623 159.708 86.903 160.593 87.2882 161.498C87.8038 162.709 88.7978 163.002 90.27 162.375C90.96 162.081 91.5116 161.611 91.9246 160.964C92.353 160.311 92.6227 159.626 92.7339 158.908C92.8386 158.175 92.7897 157.571 92.5874 157.096C92.3589 156.559 91.9835 156.166 91.461 155.918C90.9386 155.669 90.276 155.453 89.4733 155.269C88.9506 155.148 88.558 155.034 88.2957 154.928C88.0333 154.823 87.8761 154.708 87.8238 154.586C87.7455 154.402 87.8138 154.201 88.0288 153.982C88.2373 153.749 88.5179 153.557 88.8706 153.407C89.07 153.322 89.2069 153.282 89.2813 153.286C89.3491 153.275 89.3961 153.301 89.4222 153.362C89.4353 153.393 89.4275 153.459 89.3988 153.562C89.3789 153.643 89.3787 153.707 89.3983 153.753C89.4179 153.799 89.6365 153.887 90.0542 154.017C90.883 154.262 91.6154 154.557 92.2514 154.902C92.8874 155.247 93.3555 155.772 93.6558 156.478C93.9103 157.076 93.9817 157.861 93.8699 158.832C93.7581 159.803 93.4166 160.746 92.8453 161.659C92.2676 162.557 91.4573 163.228 90.4145 163.672ZM92.3162 146.071C92.0555 146.182 91.7415 146.189 91.3741 146.092C91.022 145.988 90.8166 145.867 90.7578 145.729C90.686 145.56 90.6941 145.367 90.7822 145.148C90.8856 144.923 91.0217 144.775 91.1904 144.703C91.453 144.681 91.6969 144.723 91.9221 144.826C92.097 144.896 92.3036 144.999 92.5418 145.133C92.78 145.267 92.9089 145.357 92.9285 145.403C93.0264 145.633 92.8223 145.856 92.3162 146.071ZM99.2141 160.361C98.9929 160.437 98.685 160.161 98.2904 159.532C97.9112 158.896 97.2665 157.658 96.3562 155.817C95.7661 154.601 95.1968 153.413 94.6481 152.252C94.093 151.075 93.6707 150.168 93.3812 149.53C93.3094 149.362 93.2801 149.229 93.2935 149.133C93.3157 149.015 93.4034 148.923 93.5568 148.858C93.9095 148.708 94.1939 148.759 94.4099 149.011C94.626 149.263 94.9102 149.803 95.2627 150.631L96.3951 153.355C97.0544 154.904 97.6291 156.127 98.1193 157.023C98.1389 157.069 98.4168 157.531 98.953 158.407C99.3345 159.006 99.5709 159.412 99.6623 159.627C99.7276 159.78 99.7076 159.925 99.6022 160.06C99.5187 160.204 99.3893 160.305 99.2141 160.361ZM110.009 156.119C109.856 156.184 109.709 156.202 109.569 156.171C109.436 156.155 109.343 156.086 109.291 155.963C109.023 155.334 108.655 154.341 108.185 152.983C107.677 151.533 107.224 150.34 106.825 149.405C106.44 148.5 106.096 147.777 105.793 147.236C105.499 146.673 105.253 146.433 105.053 146.518C104.532 146.74 104.234 147.637 104.16 149.208C104.095 150.757 104.114 152.76 104.218 155.215L104.264 156.282C104.268 156.462 104.213 156.63 104.099 156.787C104 156.938 103.874 157.046 103.721 157.111C103.537 157.19 103.407 157.227 103.333 157.222C103.259 157.218 103.181 157.142 103.101 156.995L102.114 155.187L100.359 152.022C99.6899 150.748 99.07 149.654 98.4989 148.738C98.355 148.527 98.2569 148.361 98.2047 148.238C98.1067 148.008 98.1281 147.781 98.2687 147.559C98.4028 147.32 98.6002 147.146 98.8609 147.035C99.0142 146.97 99.2782 147.292 99.6529 148.002C100.043 148.705 100.625 149.861 101.401 151.469L102.012 152.649C102.794 154.146 103.28 155.098 103.472 155.506C103.479 155.394 103.475 155.278 103.46 155.158C103.453 155.015 103.452 154.862 103.454 154.698C103.368 152.199 103.382 150.082 103.496 148.349C103.619 146.595 104.017 145.574 104.692 145.286C105.167 145.084 105.662 145.353 106.177 146.094C106.7 146.813 107.253 147.792 107.834 149.03C108.474 150.406 109.365 152.435 110.508 155.119C110.586 155.303 110.575 155.489 110.473 155.677C110.379 155.88 110.224 156.028 110.009 156.119ZM128.005 131.559C127.959 131.579 127.781 131.609 127.473 131.65C127.173 131.669 126.908 131.727 126.678 131.825C125.942 132.138 125.122 132.532 124.22 133.007C123.317 133.482 122.588 133.919 122.033 134.318C122.393 135.035 122.927 136.184 123.637 137.766C124.355 139.326 125.086 140.98 125.83 142.728C126.144 143.464 126.478 144.291 126.832 145.209C127.202 146.12 127.409 146.693 127.455 146.927C127.496 147.109 127.447 147.293 127.309 147.478C127.186 147.657 127.033 147.786 126.848 147.865C126.741 147.91 126.63 147.903 126.514 147.844C126.398 147.785 126.314 147.694 126.262 147.571L125.942 146.756C125.525 145.521 124.944 144.029 124.2 142.281C123.665 141.023 123.039 139.596 122.323 137.999C121.6 136.386 121.142 135.395 120.948 135.025C118.025 136.668 116.111 137.853 115.208 138.582C115.05 138.722 114.856 138.841 114.626 138.938C114.35 139.056 114.039 139.07 113.694 138.982C113.348 138.894 113.126 138.735 113.029 138.504C112.963 138.351 112.964 138.224 113.029 138.124C113.089 138.008 113.188 137.921 113.326 137.862C114.18 137.444 114.897 137.084 115.475 136.784C116.788 136.08 118.424 135.157 120.383 134.015C120.181 133.54 120.045 133.199 119.975 132.994C119.921 132.781 119.932 132.659 120.009 132.626C120.3 132.502 120.61 132.506 120.938 132.638C121.003 132.665 121.094 132.771 121.209 132.957C121.318 133.128 121.386 133.244 121.412 133.306C121.743 133.147 122.262 132.835 122.97 132.371C124.516 131.405 125.595 130.792 126.208 130.53C126.944 130.217 127.474 130.1 127.798 130.18C128.019 130.231 128.198 130.417 128.335 130.739C128.387 130.862 128.389 131.015 128.34 131.199C128.285 131.367 128.173 131.487 128.005 131.559ZM142.459 134.808C142.576 135.084 142.627 135.778 142.611 136.889C142.611 137.994 142.366 139.122 141.877 140.272C141.404 141.415 140.569 142.241 139.373 142.751C138.392 143.168 137.441 143.211 136.52 142.878C135.6 142.545 134.869 141.743 134.327 140.47C133.818 139.274 133.591 137.975 133.647 136.575C133.696 135.159 134.009 133.894 134.585 132.779C135.155 131.649 135.915 130.882 136.866 130.477C137.433 130.236 137.964 130.164 138.458 130.261C138.962 130.337 139.314 130.612 139.517 131.088C139.745 131.624 139.66 132.276 139.262 133.044C138.88 133.804 138.287 134.582 137.484 135.376C136.681 136.171 135.802 136.871 134.846 137.477C134.962 138.261 135.164 138.99 135.451 139.665C135.83 140.555 136.331 141.157 136.954 141.471C137.592 141.779 138.302 141.766 139.084 141.434C140.265 140.931 141.044 140.101 141.421 138.945C141.798 137.788 142.007 136.576 142.047 135.309C142.052 135.234 142.056 135.097 142.061 134.895C142.06 134.679 142.089 134.557 142.151 134.531C142.258 134.485 142.361 134.578 142.459 134.808ZM136.991 131.538C136.408 131.786 135.93 132.216 135.557 132.828C135.183 133.439 134.927 134.092 134.787 134.785C134.663 135.472 134.635 136.046 134.704 136.505C135.377 136.128 136.036 135.612 136.681 134.958C137.326 134.303 137.827 133.672 138.186 133.067C138.559 132.455 138.694 132.027 138.589 131.781C138.485 131.536 138.273 131.4 137.953 131.373C137.649 131.339 137.329 131.394 136.991 131.538ZM147.839 138.903C147.655 138.981 147.387 138.841 147.036 138.484C146.693 138.104 146.332 137.47 145.954 136.58C145.232 134.841 144.364 132.738 143.35 130.271C142.351 127.798 141.603 125.934 141.105 124.679C140.931 124.227 140.832 123.781 140.806 123.338C140.797 122.89 140.976 122.587 141.344 122.431C141.466 122.378 141.572 122.415 141.662 122.54C141.76 122.643 141.888 122.878 142.044 123.246C142.051 123.262 142.066 123.319 142.09 123.417C142.122 123.494 142.184 123.639 142.276 123.854C143.717 128.005 145.253 131.997 146.885 135.831C147.094 136.322 147.423 136.797 147.873 137.258C148.338 137.712 148.577 137.955 148.59 137.985C148.655 138.139 148.608 138.304 148.447 138.481C148.287 138.657 148.084 138.798 147.839 138.903ZM157.734 128.305C157.851 128.582 157.902 129.275 157.886 130.387C157.886 131.492 157.641 132.62 157.153 133.77C156.679 134.913 155.845 135.739 154.648 136.249C153.667 136.666 152.716 136.709 151.795 136.376C150.875 136.043 150.144 135.241 149.602 133.968C149.093 132.772 148.866 131.473 148.922 130.073C148.972 128.657 149.284 127.392 149.861 126.277C150.43 125.147 151.19 124.38 152.141 123.975C152.709 123.733 153.239 123.661 153.734 123.759C154.237 123.835 154.59 124.11 154.792 124.586C155.02 125.122 154.936 125.774 154.538 126.541C154.155 127.302 153.562 128.08 152.759 128.874C151.956 129.669 151.077 130.369 150.121 130.975C150.238 131.759 150.439 132.488 150.727 133.163C151.105 134.052 151.606 134.654 152.229 134.969C152.867 135.277 153.577 135.264 154.359 134.931C155.54 134.429 156.319 133.599 156.696 132.442C157.073 131.286 157.282 130.074 157.322 128.807C157.327 128.732 157.332 128.594 157.337 128.393C157.335 128.176 157.365 128.055 157.426 128.029C157.533 127.983 157.636 128.075 157.734 128.305ZM152.267 125.036C151.684 125.284 151.206 125.714 150.832 126.325C150.459 126.937 150.202 127.59 150.062 128.283C149.938 128.97 149.911 129.544 149.979 130.003C150.652 129.626 151.311 129.11 151.956 128.455C152.601 127.8 153.103 127.17 153.461 126.565C153.834 125.953 153.969 125.525 153.865 125.279C153.76 125.034 153.548 124.898 153.229 124.871C152.925 124.837 152.604 124.892 152.267 125.036ZM172.053 135.144C171.661 136.053 171.186 136.853 170.629 137.543C170.093 138.242 169.565 138.703 169.043 138.925C168.752 139.049 168.512 139.06 168.324 138.959C168.143 138.873 168.01 138.73 167.925 138.531C167.846 138.347 168.1 137.986 168.686 137.446C169.585 136.665 170.309 135.687 170.859 134.511C171.288 133.603 171.498 132.69 171.487 131.771C171.476 130.852 171.297 129.986 170.951 129.173C170.56 128.253 170.139 127.436 169.69 126.721C169.257 126 168.679 125.132 167.957 124.117C167.178 123.054 166.559 122.131 166.099 121.348C166.139 122.165 166.095 123.189 165.967 124.421C165.854 125.646 165.618 126.879 165.259 128.119C164.925 129.293 164.559 130.219 164.159 130.896C163.774 131.567 163.313 132.017 162.777 132.245C162.316 132.441 161.896 132.412 161.516 132.157C161.145 131.88 160.825 131.427 160.558 130.799C160.114 129.756 159.914 128.392 159.957 126.707C160.001 125.022 160.29 123.468 160.825 122.045C161.361 120.621 162.096 119.71 163.032 119.312C163.354 119.175 163.648 119.186 163.915 119.344C164.196 119.496 164.406 119.732 164.543 120.055C164.719 120.469 164.723 120.711 164.554 120.783C164.508 120.803 164.424 120.775 164.302 120.701C164.188 120.604 164.066 120.529 163.935 120.476C163.804 120.424 163.684 120.42 163.577 120.466C162.795 120.799 162.183 121.575 161.743 122.795C161.317 124.009 161.088 125.32 161.054 126.729C161.028 128.117 161.176 129.186 161.495 129.938C161.672 130.352 161.853 130.628 162.038 130.766C162.239 130.898 162.462 130.912 162.708 130.807C163.076 130.651 163.429 130.247 163.768 129.595C164.106 128.944 164.44 128.005 164.769 126.778C165.068 125.691 165.249 124.5 165.313 123.204C165.387 121.887 165.352 120.679 165.211 119.58C165.202 119.475 165.215 119.379 165.251 119.291C165.301 119.197 165.373 119.131 165.465 119.092C165.603 119.033 165.76 119.02 165.937 119.053C166.123 119.065 166.236 119.117 166.275 119.209C166.301 119.27 166.315 119.345 166.317 119.435C166.328 119.503 166.329 119.548 166.32 119.57C166.787 120.367 167.598 121.571 168.754 123.18C169.58 124.314 170.245 125.28 170.749 126.08C171.261 126.858 171.69 127.654 172.036 128.467C172.546 129.663 172.771 130.853 172.714 132.037C172.656 133.22 172.436 134.256 172.053 135.144ZM177.664 115.773C177.557 115.819 177.43 115.819 177.284 115.772C177.152 115.72 176.99 115.635 176.795 115.519C176.623 115.411 176.421 115.343 176.192 115.314C175.977 115.278 175.778 115.299 175.594 115.378C175.149 115.567 174.803 116.412 174.554 117.913C174.298 119.398 174.189 121.183 174.225 123.269C174.391 123.615 174.603 124.05 174.862 124.574C175.137 125.091 175.337 125.477 175.463 125.731L175.924 126.622C176.016 126.836 176.048 127.04 176.021 127.232C176.001 127.44 175.868 127.596 175.623 127.701C175.362 127.812 175.047 127.539 174.676 126.881C174.299 126.208 173.819 125.208 173.236 123.881C173.077 123.55 172.856 123.073 172.573 122.451C172.305 121.822 171.97 121.077 171.567 120.216C170.96 118.917 170.536 117.984 170.294 117.416C170.144 117.064 170.284 116.796 170.713 116.613C170.974 116.502 171.176 116.552 171.32 116.762C171.473 116.951 171.683 117.36 171.95 117.988L173.507 121.646C173.465 120.269 173.529 119.037 173.7 117.95C173.871 116.863 174.115 115.989 174.432 115.329C174.758 114.647 175.12 114.221 175.518 114.051C175.856 113.908 176.211 113.847 176.583 113.87C176.955 113.893 177.285 113.988 177.573 114.155C177.855 114.307 178.042 114.49 178.133 114.704C178.192 114.842 178.161 115.046 178.04 115.315C177.928 115.562 177.802 115.715 177.664 115.773ZM193.396 118.641C193.474 118.825 193.489 119.073 193.44 119.383C193.385 119.678 193.28 119.859 193.127 119.924C192.866 120.035 192.598 119.959 192.323 119.696C192.048 119.432 191.819 119.086 191.636 118.657C191.48 118.289 191.033 117.175 190.295 115.315L189.946 114.431C189.796 114.078 189.596 113.864 189.347 113.789C189.153 115.248 188.94 116.535 188.707 117.648C188.475 118.761 188.062 119.897 187.468 121.056C186.868 122.199 186.062 122.986 185.049 123.417C184.559 123.626 184.11 123.635 183.703 123.446C183.312 123.25 183.012 122.907 182.803 122.416C182.542 121.803 182.462 120.85 182.564 119.557C182.659 118.248 182.904 116.867 183.3 115.412C183.689 113.943 184.162 112.672 184.721 111.601C185.092 110.9 185.414 110.401 185.686 110.104C185.952 109.791 186.215 109.58 186.476 109.469C186.721 109.364 187.007 109.333 187.333 109.376C187.659 109.418 187.972 109.538 188.274 109.736C188.575 109.934 188.801 110.209 188.951 110.561C189.154 111.037 189.216 111.545 189.138 112.085L189.48 111.804C189.649 111.732 189.837 111.896 190.043 112.297C190.163 112.536 190.391 113.028 190.726 113.773C191.076 114.511 191.364 115.123 191.588 115.607C191.819 116.106 192.043 116.591 192.261 117.059C192.478 117.528 192.654 117.897 192.786 118.167C192.848 118.268 192.958 118.357 193.117 118.434C193.27 118.495 193.363 118.565 193.396 118.641ZM188.643 113.029C188.631 112.491 188.511 111.953 188.283 111.417C188.146 111.095 187.929 110.861 187.631 110.716C187.343 110.549 187.038 110.534 186.716 110.671C186.332 110.834 185.952 111.304 185.576 112.08C185.134 112.956 184.739 114.048 184.39 115.356C184.034 116.649 183.806 117.878 183.704 119.044C183.603 120.21 183.67 121.069 183.905 121.621C184.101 122.082 184.413 122.22 184.843 122.037C185.671 121.685 186.338 121.039 186.843 120.099C187.349 119.159 187.721 118.14 187.96 117.042C188.208 115.922 188.436 114.585 188.643 113.029ZM210.099 113.053C209.823 113.17 209.626 113.091 209.509 112.815C208.19 109.717 207.082 107.39 206.184 105.834C205.28 104.263 204.582 103.582 204.092 103.791C203.263 104.143 203.282 107.55 204.148 114.01L204.158 114.033C204.237 114.217 204.244 114.404 204.18 114.594C204.109 114.769 203.974 114.899 203.775 114.984C203.499 115.101 203.302 115.022 203.185 114.746C202.924 114.133 202.55 113.169 202.063 111.855C201.51 110.387 201.058 109.239 200.706 108.411C200.216 107.261 199.832 106.464 199.553 106.022C199.282 105.557 199.032 105.374 198.802 105.472C198.281 105.694 198.029 106.933 198.048 109.189C198.06 111.43 198.181 114.032 198.41 116.996L198.457 117.682C198.461 117.862 198.425 118.031 198.348 118.191C198.286 118.344 198.186 118.45 198.048 118.509C197.864 118.587 197.735 118.624 197.66 118.619C197.586 118.615 197.509 118.539 197.428 118.392C197.031 117.673 196.542 116.695 195.961 115.457C195.793 115.148 195.538 114.632 195.194 113.909C193.937 111.383 193.055 109.693 192.547 108.841C192.033 107.973 191.753 107.485 191.707 107.378C191.655 107.255 191.654 107.083 191.705 106.862C191.756 106.642 191.835 106.508 191.942 106.463C192.188 106.358 192.462 106.45 192.766 106.737C192.914 106.873 193.286 107.512 193.88 108.654C194.475 109.795 195.175 111.227 195.98 112.949L197.594 116.42C197.327 113.454 197.196 110.72 197.2 108.219C197.198 105.702 197.572 104.284 198.323 103.964C198.83 103.748 199.331 103.969 199.829 104.627C200.326 105.285 200.872 106.312 201.466 107.707C201.779 108.443 202.214 109.508 202.771 110.901L203.198 111.969C202.894 109.508 202.731 107.404 202.712 105.655C202.707 103.9 203.019 102.889 203.648 102.621C205.227 101.949 207.506 105.109 210.482 112.102C210.56 112.286 210.564 112.465 210.494 112.64C210.43 112.83 210.298 112.968 210.099 113.053Z" fill="white"/>
<defs>
<linearGradient id="paint0_linear_9_462" x1="15.8094" y1="185.079" x2="262.234" y2="185.079" gradientUnits="userSpaceOnUse">
<stop stop-color="#72159E"/>
<stop offset="1" stop-color="#080838"/>
</linearGradient>
</defs>
</svg>
